<?xml version="1.0" encoding="UTF-8" standalone="no"?>
<!-- Uploaded to: SVG Repo, www.svgrepo.com, Generator: SVG Repo Mixer Tools -->

<svg
   width="800"
   height="618.1825"
   viewBox="0 0 25 19.318203"
   version="1.1"
   id="svg3"
   sodipodi:docname="Backup.svg"
   xml:space="preserve"
   inkscape:version="1.4 (86a8ad7, 2024-10-11)"
   inkscape:export-filename="Backup.png"
   inkscape:export-xdpi="96"
   inkscape:export-ydpi="96"
   xmlns:inkscape="http://www.inkscape.org/namespaces/inkscape"
   xmlns:sodipodi="http://sodipodi.sourceforge.net/DTD/sodipodi-0.dtd"
   xmlns="http://www.w3.org/2000/svg"
   xmlns:svg="http://www.w3.org/2000/svg"><sodipodi:namedview
     id="namedview3"
     pagecolor="#ffffff"
     bordercolor="#000000"
     borderopacity="0.25"
     inkscape:showpageshadow="2"
     inkscape:pageopacity="0.0"
     inkscape:pagecheckerboard="0"
     inkscape:deskcolor="#d1d1d1"
     inkscape:zoom="0.51928154"
     inkscape:cx="360.11294"
     inkscape:cy="349.52138"
     inkscape:window-width="2560"
     inkscape:window-height="1377"
     inkscape:window-x="-8"
     inkscape:window-y="-8"
     inkscape:window-maximized="1"
     inkscape:current-layer="svg3" /><defs
     id="defs1"><style
       id="style1">.cls-1{fill:#ff7900;}</style><linearGradient
       id="paint0_linear_103_1791"
       x1="16"
       y1="0"
       x2="16"
       y2="16.3543"
       gradientUnits="userSpaceOnUse"><stop
         stop-color="#FBA200"
         id="stop2" /><stop
         offset="1"
         stop-color="#FF7300"
         id="stop3" /></linearGradient><linearGradient
       id="paint1_linear_103_1791"
       x1="17.4545"
       y1="5.8181801"
       x2="17.4545"
       y2="24.727301"
       gradientUnits="userSpaceOnUse"><stop
         stop-color="#FAC227"
         id="stop4" /><stop
         offset="1"
         stop-color="#FAA627"
         id="stop5" /></linearGradient><style
       id="style1-2">.cls-1{fill:#ff7900;}</style></defs><g
     style="fill:none"
     id="g4"
     transform="scale(0.78125)"><path
       fill-rule="evenodd"
       clip-rule="evenodd"
       d="m 2.90909,0 h 8.37431 c 1.1573,0 2.2672,0.459739 3.0856,1.27808 l 0.3529,0.35293 c 0.8183,0.81834 1.9283,1.27808 3.0855,1.27808 h 5.4653 c 0.8034,0 1.489,0.28401 2.057,0.85206 0.568,0.56803 0.8521,1.25372 0.8521,2.05703 V 21.8182 c 0,0.8033 -0.2841,1.489 -0.8521,2.057 -0.568,0.568 -1.2536,0.8521 -2.057,0.8521 H 2.90909 c -0.80333,0 -1.489,-0.2841 -2.057038,-0.8521 C 0.284017,23.3072 0,22.6215 0,21.8182 V 2.90909 C 0,2.10576 0.284017,1.42009 0.852052,0.852052 1.42009,0.284017 2.10576,0 2.90909,0 Z"
       fill="url(#paint0_linear_103_1791)"
       id="path1-4"
       style="fill:url(#paint0_linear_103_1791)" /><path
       fill-rule="evenodd"
       clip-rule="evenodd"
       d="M 5.81818,21.8182 V 8.72727 c 0,-0.80332 0.28402,-1.489 0.85206,-2.05704 C 7.23827,6.1022 7.92395,5.81818 8.72727,5.81818 H 29.0909 c 0.8033,0 1.489,0.28402 2.057,0.85205 C 31.716,7.23827 32,7.92395 32,8.72727 V 21.8182 c 0,0.8033 -0.284,1.489 -0.8521,2.057 -0.568,0.568 -1.2537,0.8521 -2.057,0.8521 H 2.90909 c 0.80332,0 1.48901,-0.2841 2.05703,-0.8521 0.56805,-0.568 0.85206,-1.2537 0.85206,-2.057 z"
       fill="url(#paint1_linear_103_1791)"
       id="path2-8"
       style="fill:url(#paint1_linear_103_1791)" /></g><path
     class="cls-1"
     d="M 10.594878,9.4288993 A 0.23771246,0.23771246 0 0 1 10.357165,9.6666117 H 8.9308896 A 0.23771246,0.23771246 0 0 1 8.6931776,9.5049673 L 8.2177526,8.0786925 a 0.24958681,0.24958681 0 1 1 0.475425,-0.152136 l 0.332797,1.0411806 A 5.4531239,5.4531239 0 1 1 8.4507106,13.384435 0.24750651,0.24750651 0 1 1 8.9261356,13.246562 4.9919618,4.9919618 0 1 0 13.68514,6.8140621 4.977699,4.977699 0 0 0 9.4443486,9.1911868 h 0.9128164 a 0.23771246,0.23771246 0 0 1 0.237713,0.2377125 z"
     id="path1"
     style="fill:#ffffff;stroke:#ffffff;stroke-width:0.181687;stroke-dasharray:none;stroke-opacity:1" /><path
     class="cls-1"
     d="M 13.651325,12.341901 V 8.9663845 a 0.2377125,0.2377125 0 0 0 -0.475425,0 v 3.4801105 a 0.22820397,0.22820397 0 0 0 0.07607,0.171152 l 2.377125,2.224989 a 0.21394122,0.21394122 0 0 0 0.161645,0.06656 0.23771246,0.23771246 0 0 0 0.161644,-0.408866 z"
     id="path2-5"
     style="fill:#ffffff;stroke:#ffffff;stroke-width:0.181687;stroke-dasharray:none;stroke-opacity:1" /></svg>
